# xmcd
#
# Track frame offsets:
#	150
#	11096
#	26864
#	40407
#	52877
#	66119
#	76331
#	90239
#	103070
#	113076
#
# Disc length: 1708 seconds
#
# Revision: 0
# Processed by: cddbd v1.5.2PL0 Copyright (c) Steve Scherf et al.
# Submitted via: EZCDAudioConverter 7.1.4.1
#
DISCID=7606aa0a
DTITLE=Drunk Cowboys - Honky Tonkin' The Beatles
DYEAR=2008
DGENRE=Bluegrass
TTITLE0=	\nI Feel Fine
TTITLE1=	\nTicket To Ride
TTITLE2=Day Tripper
TTITLE3=Drive My Car
TTITLE4=8 Days A Week
TTITLE5=	\nMoney (That's What I Want)
TTITLE6=	\nI Saw Her Standing There
TTITLE7=Hard Day's Night
TTITLE8=	\nCan't Buy Me Love
TTITLE9=Why Don't We Do It In The Road
EXTD=
EXTT0=
EXTT1=
EXTT2=
EXTT3=
EXTT4=
EXTT5=
EXTT6=
EXTT7=
EXTT8=
EXTT9=
PLAYORDER=
